<?xml version="1.0" standalone="no"?>
<!DOCTYPE svg PUBLIC "-//W3C//DTD SVG 1.1//EN" "http://www.w3.org/Graphics/SVG/1.1/DTD/svg11.dtd" >
<svg xmlns="http://www.w3.org/2000/svg" xmlns:xlink="http://www.w3.org/1999/xlink" version="1.1">
<metadata></metadata>
<defs>
<font id="quatre_quartsregular" horiz-adv-x="241" >
<font-face units-per-em="1000" ascent="800" descent="-200" />
<missing-glyph horiz-adv-x="132" />
<glyph horiz-adv-x="0" />
<glyph unicode="&#xd;" horiz-adv-x="0" />
<glyph unicode="&#xa;" horiz-adv-x="0" />
<glyph unicode=" "  horiz-adv-x="132" />
<glyph unicode="&#x09;" horiz-adv-x="132" />
<glyph unicode="&#xa0;" horiz-adv-x="132" />
<glyph unicode="!" d="M87.5 131q27.5 0 46.5 -19t19 -46.5t-19 -46.5t-46.5 -19t-46.5 19t-19 46.5t19 46.5t46.5 19zM103 50.5q6 6.5 6 15.5t-6 15.5t-15.5 6.5t-15.5 -6.5t-6 -15.5t6 -15.5t15.5 -6.5t15.5 6.5zM109 175l-21 3l-22 -3l-66 525h175zM125 656h-75l37 -303z" />
<glyph unicode="&#x22;" horiz-adv-x="197" d="M131 591h-43v175h43v-175zM44 591h-44v175h44v-175z" />
<glyph unicode="#" horiz-adv-x="328" d="M218 700h44l-40 -219h40v-43h-48l-25 -132h73v-44h-81l-49 -262h-44l48 262h-43l-49 -262h-44l49 262h-49v44h57l25 132h-82v43h90l40 219h45l-41 -219h43zM126 438l-24 -132h43l24 132h-43z" />
<glyph unicode="%" horiz-adv-x="375" d="M89 525q-36 0 -62 25.5t-26 62t26 62t62 25.5t61.5 -25.5t25.5 -62t-25.5 -62t-61.5 -25.5zM58 643.5q-13 -12.5 -13 -31t13 -31t31 -12.5t31 12.5t13 31t-13 31t-31 12.5t-31 -12.5zM220 175q36 0 62 -25.5t26 -62t-26 -62t-62 -25.5t-61.5 25.5t-25.5 62t25.5 62 t61.5 25.5zM251 56.5q13 12.5 13 31t-13 31t-31 12.5t-31 -12.5t-13 -31t13 -31t31 -12.5t31 12.5zM262 700h47l-262 -700h-47z" />
<glyph unicode="&#x26;" horiz-adv-x="372" d="M306 394v-44h-87v-241q0 -45 -32 -77t-77.5 -32t-77.5 32t-32 77v153q0 23 7.5 44t20.5 37.5t31 28.5q-27 18 -43 47t-16 62v88q0 54 38.5 92.5t92.5 38.5h44v-44h-44q-18 0 -34 -7q-8 -3 -15 -7.5t-13 -10.5t-10.5 -13t-7.5 -15q-7 -16 -7 -34v-88q0 -18 7 -34 q3 -8 7.5 -15t10.5 -13t13 -10.5t15 -7.5q16 -7 34 -7h44v87h44v-87h87zM175 109v241h-44q-18 0 -34 -7q-8 -3 -15 -8t-13 -11t-10.5 -13t-7.5 -14q-7 -17 -7 -35v-153q0 -13 5 -25t14 -21t21 -14t25.5 -5t25.5 5t21 14t14 21t5 25z" />
<glyph unicode="'" horiz-adv-x="132" d="M44 591h-44v175h44v-175z" />
<glyph unicode="(" d="M160 -39q8 -4 15 -4v-44q-48 0 -88 58.5t-63.5 159.5t-23.5 219.5t23.5 219.5t63.5 159.5t88 58.5v-44q-7 0 -15 -4q-11 -5 -21 -16q-13 -13 -24 -33q-12 -21 -23 -47q-11 -28 -20 -60q-9 -34 -15 -71q-7 -37 -10 -78q-3 -42 -3 -84.5t3 -84.5q3 -41 10 -78q6 -37 15 -71 q9 -32 20 -60q11 -26 23 -47q11 -20 24 -33q10 -11 21 -16z" />
<glyph unicode=")" d="M15 -39q-8 -4 -15 -4v-44q48 0 88 58.5t63.5 159.5t23.5 219.5t-23.5 219.5t-63.5 159.5t-88 58.5v-44q7 0 15 -4q11 -5 21 -16q13 -13 24 -33q12 -21 23 -47q11 -28 20 -60q9 -34 15 -71q7 -37 10 -78q3 -42 3 -84.5t-3 -84.5q-3 -41 -10 -78q-6 -37 -15 -71 q-9 -32 -20 -60q-11 -26 -23 -47q-11 -20 -24 -33q-10 -11 -21 -16z" />
<glyph unicode="*" d="M129 700l38 -22l-42 -71h50v-44h-50l42 -71l-38 -22l-41 71l-42 -71l-38 22l42 71h-50v44h50l-42 71l38 22l42 -71z" />
<glyph unicode="+" d="M109 503v-131h66v-44h-66v-131h-43v131h-66v44h66v131h43z" />
<glyph unicode="," horiz-adv-x="142" d="M30 -81q-14 -6 -30 -6v44q14 0 23.5 9.5t9.5 23.5v98h44v-98q0 -16 -6 -30t-16.5 -24.5t-24.5 -16.5z" />
<glyph unicode="-" d="M175 371v-44h-175v44h175z" />
<glyph unicode="." horiz-adv-x="197" d="M66 88q-9 0 -15.5 -6.5t-6.5 -15.5t6.5 -15.5t15.5 -6.5t15.5 6.5t6.5 15.5t-6.5 15.5t-15.5 6.5zM0 65.5q0 27.5 19 46.5t46.5 19t46.5 -19t19 -46.5t-19 -46.5t-46.5 -19t-46.5 19t-19 46.5z" />
<glyph unicode="/" d="M0 0l130 700h45l-131 -700h-44z" />
<glyph unicode="0" d="M131 700h44v-569q0 -54 -38.5 -92.5t-92.5 -38.5h-44v569q0 54 38.5 92.5t92.5 38.5zM131 131v525q-18 0 -34 -7q-8 -3 -15 -7.5t-13 -10.5t-10.5 -13t-7.5 -15q-7 -16 -7 -34v-525q18 0 34 7q8 3 15 7.5t13 10.5t10.5 13t7.5 15q7 16 7 34z" />
<glyph unicode="1" horiz-adv-x="240" d="M131 700h44v-700h-44v584q-52 -59 -131 -59v44q27 0 51 10q12 5 22.5 12t19.5 16t16 19.5t12 22.5q10 24 10 51z" />
<glyph unicode="2" d="M44 44h131v-44h-175v44q0 55 18 131q10 39 22 74q13 38 28 67q23 44 36.5 83.5t19 80t6.5 65t1 67.5v44q-18 0 -34 -7q-8 -3 -15 -7.5t-13 -10.5t-10.5 -13t-7.5 -15q-7 -16 -7 -34h-44q0 54 38.5 92.5t92.5 38.5h44v-87q0 -91 -8 -143q-7 -41 -21 -82q-15 -45 -39 -92 q-18 -36 -33 -84.5t-22.5 -92t-7.5 -75.5z" />
<glyph unicode="3" d="M175 481q0 -33 -16 -62t-43 -47q27 -18 43 -47t16 -62v-132q0 -54 -38.5 -92.5t-92.5 -38.5h-44v44h44q18 0 34 7q8 3 15 7.5t13 10.5t10.5 13t7.5 15q7 16 7 34v132q0 17 -7 34q-3 7 -7.5 14t-10.5 13t-13 11t-15 8q-16 7 -34 7v44q18 0 34 7q8 3 15 7.5t13 10.5 t10.5 13.5t7.5 14.5q7 16 7 34v88q0 18 -7 34q-3 8 -7.5 15t-10.5 13t-13 10.5t-15 7.5q-16 7 -34 7h-44v44h44q54 0 92.5 -38.5t38.5 -92.5v-88zM44 350h-44v44h44v-44z" />
<glyph unicode="4" d="M82 408.5q7 -4.5 15 -7.5q16 -7 34 -7v-44q-54 0 -92.5 38.5t-38.5 92.5v219h44v-219q0 -18 7 -34q3 -8 7.5 -15t10.5 -13t13 -10.5zM175 0h-44v700h44v-700z" />
<glyph unicode="5" d="M44 394q35 0 65.5 -17.5t48 -48t17.5 -65.5v-132q0 -54 -38.5 -92.5t-92.5 -38.5h-44v44h44q18 0 34 7q8 3 15 7.5t13 10.5t10.5 13t7.5 15q7 16 7 34v132q0 17 -7 34q-3 7 -7.5 14t-10.5 13t-13 11t-15 8q-16 7 -34 7h-44v350h175v-44h-131v-262z" />
<glyph unicode="6" d="M175 656h-44v44h44v-44zM44 394q54 0 92.5 -38.5t38.5 -93.5v-262h-44q-54 0 -92.5 38.5t-38.5 92.5v438q0 54 38.5 92.5t92.5 38.5v-44q-18 0 -34 -7q-8 -3 -15 -7.5t-13 -10.5t-10.5 -13t-7.5 -15q-7 -16 -7 -34v-175zM131 44v218q0 18 -7 35q-3 7 -7.5 14t-10.5 13 t-13 11t-15 8q-16 7 -34 7v-219q0 -18 7 -34q3 -8 7.5 -15t10.5 -13t13 -10.5t15 -7.5q16 -7 34 -7z" />
<glyph unicode="7" d="M175 700l-57 -306h35v-44h-43l-65 -350h-45l65 350h-43v44h51l49 262h-122v44h175z" />
<glyph unicode="8" d="M131 374q-1 -1 -3 -2q2 -1 3 -3q44 -39 44 -97v-141q0 -54 -38.5 -92.5t-92.5 -38.5h-44v272q0 58 44 97q1 2 3 3q-2 1 -3 2q-44 39 -44 98v97q0 54 38.5 92.5t92.5 38.5h44v-228q0 -59 -44 -98zM131 272q0 17 -7 34q-3 7 -7.5 14.5t-10.5 13t-13 10.5q-3 2 -5 3 q-3 -1 -6 -3q-7 -5 -13 -10.5t-10.5 -13t-7.5 -14.5q-7 -17 -7 -34v-228q18 0 34 7q8 3 15 7.5t13 10.5t10.5 13t7.5 15q7 16 7 34v141zM124 438q7 16 7 34v184q-18 0 -34 -7q-8 -3 -15 -7.5t-13 -10.5t-10.5 -13t-7.5 -15q-7 -16 -7 -34v-97q0 -18 7 -34q3 -8 7.5 -15 t10.5 -13t13 -10l6 -4q2 2 5 4q7 4 13 10t10.5 13t7.5 15z" />
<glyph unicode="9" d="M131 700h44v-569q0 -54 -38.5 -92.5t-92.5 -38.5h-44v44h44q18 0 34 7q8 3 15 7.5t13 10.5t10.5 13t7.5 15q7 16 7 34v252q-37 -33 -87 -33h-44v219q0 54 38.5 92.5t92.5 38.5zM131 481v175q-18 0 -34 -7q-8 -3 -15 -7.5t-13 -10.5t-10.5 -13t-7.5 -15q-7 -16 -7 -34 v-175q18 0 34 7q8 3 15 7.5t13 10.5t10.5 13t7.5 15q7 16 7 34z" />
<glyph unicode=":" horiz-adv-x="197" d="M65.5 262q27.5 0 46.5 -19t19 -46.5t-19 -46.5t-46.5 -19t-46.5 19t-19 46.5t19 46.5t46.5 19zM81.5 181.5q6.5 6.5 6.5 15.5t-6.5 15t-15.5 6t-15.5 -6t-6.5 -15t6.5 -15.5t15.5 -6.5t15.5 6.5zM65.5 437q-27.5 0 -46.5 19.5t-19 46.5t19 46t46.5 19t46.5 -19t19 -46 t-19 -46.5t-46.5 -19.5zM50.5 518.5q-6.5 -6.5 -6.5 -15.5t6.5 -15.5t15.5 -6.5t15.5 6.5t6.5 15.5t-6.5 15.5t-15.5 6.5t-15.5 -6.5z" />
<glyph unicode=";" horiz-adv-x="106" d="M44 0h-44v44h44v-44z" />
<glyph unicode="=" d="M175 285h-175v44h175v-44zM175 372h-175v44h175v-44z" />
<glyph unicode="?" d="M88 700q36 0 61.5 -25.5t25.5 -61.5q0 -55 -24 -128q-9 -29 -14.5 -48.5t-13 -57.5t-11 -88.5t-3.5 -115.5h-43q0 124 14 210q9 50 30 114q21 66 21 113q0 19 -12.5 31.5t-31 12.5t-31 -12.5t-12.5 -31t13 -30.5l-31 -31q-26 25 -26 61q0 37 25.5 62.5t62.5 25.5z M87.5 131q27.5 0 46.5 -19t19 -46.5t-19 -46.5t-46.5 -19t-46.5 19t-19 46.5t19 46.5t46.5 19zM103 50.5q6 6.5 6 15.5t-6 15.5t-15.5 6.5t-15.5 -6.5t-6 -15.5t6 -15.5t15.5 -6.5t15.5 6.5z" />
<glyph unicode="@" horiz-adv-x="416" d="M219 700q54 0 92.5 -38.5t38.5 -92.5v-350q0 -27 -19 -46.5t-47 -19.5q-30 0 -50 23q-25 -23 -59 -23q-36 0 -61.5 25.5t-25.5 62.5v175q0 54 38 92.5t93 38.5h44v0v-306q-1 -12 -3 -22h3q0 -9 6 -15.5t15 -6.5t15.5 6.5t6.5 15.5v350q0 18 -7 34q-3 8 -7.5 15t-10.5 13 t-13 10.5t-15 7.5q-16 7 -34 7h-88q-18 0 -34 -7q-8 -3 -15 -7.5t-13 -10.5t-10.5 -13t-7.5 -15q-7 -16 -7 -34v-438q0 -18 7 -34q3 -8 7.5 -15t10.5 -13t13 -10.5t15 -7.5q16 -7 34 -7h88q18 0 34 7q8 3 15 7.5t13 10.5v1l31 -31q-38 -39 -93 -39h-88q-54 0 -92.5 38.5 t-38.5 92.5v438q0 54 38.5 92.5t92.5 38.5h88zM175 197q18 0 31 12.5t13 31.5v262q-18 0 -34 -7q-8 -3 -15 -8t-13 -10.5t-11 -13t-8 -14.5q-7 -17 -7 -34v-175q0 -18 13 -31t31 -13z" />
<glyph unicode="A" d="M131 700h44v-700h-44v350h-87v-350h-44v569q0 54 38.5 92.5t92.5 38.5v0zM131 394v262q-18 0 -34 -7q-7 -3 -14 -7.5t-13 -10.5t-11 -13t-8 -15q-7 -16 -7 -34v-175h87z" />
<glyph unicode="B" d="M175 481q0 -33 -16 -62t-43 -47q27 -18 43 -47t16 -63v-131q0 -54 -38.5 -92.5t-92.5 -38.5h-44v700h44q54 0 92.5 -38.5t38.5 -92.5v-88zM131 262q0 18 -7 35q-3 7 -7.5 14t-10.5 13t-13 11t-15 8q-16 7 -34 7v-306q18 0 34 7q8 3 15 7.5t13 10.5t10.5 13t7.5 15 q7 16 7 34v131zM131 481v88q0 18 -7 34q-3 8 -7.5 15t-10.5 13t-13 10.5t-15 7.5q-16 7 -34 7v-262q18 0 34 7q8 3 15 7.5t13 10.5t10.5 13t7.5 15q7 16 7 34z" />
<glyph unicode="C" horiz-adv-x="240" d="M44 569v-438q0 -18 7 -34q3 -8 7.5 -15t10.5 -13t13 -10.5t15 -7.5q16 -7 34 -7h44v-44h-44q-54 0 -92.5 38.5t-38.5 92.5v438q0 54 38.5 92.5t92.5 38.5h44v-44h-44q-18 0 -34 -7q-8 -3 -15 -7.5t-13 -10.5t-10.5 -13t-7.5 -15q-7 -16 -7 -34z" />
<glyph unicode="D" d="M44 700q54 0 92.5 -38.5t38.5 -92.5v-438q0 -54 -38.5 -92.5t-92.5 -38.5h-44v700h44zM131 131v438q0 18 -7 34q-3 8 -7.5 15t-10.5 13t-13 10.5t-15 7.5q-16 7 -34 7v-612q18 0 34 7q8 3 15 7.5t13 10.5t10.5 13t7.5 15q7 16 7 34z" />
<glyph unicode="E" d="M175 656h-131v-262h87v-44h-87v-306h131v-44h-175v700h175v-44z" />
<glyph unicode="F" d="M175 656h-131v-262h87v-44h-87v-350h-44v700h175v-44z" />
<glyph unicode="G" d="M175 394v-350v-44h-44v0q-54 0 -92.5 38.5t-38.5 92.5v438q0 54 38.5 92.5t92.5 38.5h44v-44h-44q-18 0 -34 -7q-8 -3 -15 -7.5t-13 -10.5t-10.5 -13t-7.5 -15q-7 -16 -7 -34v-438q0 -18 7 -34q3 -8 7.5 -15t10.5 -13t13 -10.5t15 -7.5q16 -7 34 -7v306h-43v44h87z" />
<glyph unicode="H" d="M131 700h44v-700h-44v350h-87v-350h-44v700h44v-306h87v306z" />
<glyph unicode="I" d="M175 44v-44h-66h-43h-66v44h66v612h-66v44h175v-44h-66v-612h66z" />
<glyph unicode="J" d="M66 700h109v-569q0 -54 -38.5 -92.5t-92.5 -38.5h-44v175h44v-131q18 0 34 7q8 3 15 7.5t13 10.5t10.5 13t7.5 15q7 16 7 34v525h-65v44z" />
<glyph unicode="K" d="M82 373l93 -373h-45l-86 345v-345h-44v700h44v-300l86 300h45z" />
<glyph unicode="L" d="M44 44h131v-44h-175v700h44v-656z" />
<glyph unicode="M" horiz-adv-x="240" d="M131 700h44v-700h-44v463l-21 -113h-45l-21 113v-463h-44v700h44l44 -235z" />
<glyph unicode="N" d="M175 4v-4h-44l-87 464v-464h-44v700h44l87 -464v464h44v-696z" />
<glyph unicode="O" d="M44 700h-44v-569q0 -54 38.5 -92.5t92.5 -38.5h44v569q0 54 -38.5 92.5t-92.5 38.5zM44 131v525q18 0 34 -7q8 -3 15 -7.5t13 -10.5t10.5 -13t7.5 -15q7 -16 7 -34v-525q-18 0 -34 7q-8 3 -15 7.5t-13 10.5t-10.5 13t-7.5 15q-7 16 -7 34z" />
<glyph unicode="P" d="M44 700q54 0 92.5 -38.5t38.5 -92.5v-88q0 -54 -38.5 -92.5t-92.5 -38.5v-350h-44v700h44zM131 481v88q0 18 -7 34q-3 8 -7.5 15t-10.5 13t-13 10.5t-15 7.5q-16 7 -34 7v-262q18 0 34 7q8 3 15 7.5t13 10.5t10.5 13t7.5 15q7 16 7 34z" />
<glyph unicode="Q" d="M228 -89l-31 -31l-158 158q-39 38 -39 93v569h44q54 0 92.5 -38.5t38.5 -92.5v-569h-36zM44 656v-525q0 -18 7 -34q3 -8 7.5 -15t10.5 -13t13 -10.5t15 -7.5q16 -7 34 -7v525q0 18 -7 34q-3 8 -7.5 15t-10.5 13t-13 10.5t-15 7.5q-16 7 -34 7z" />
<glyph unicode="R" d="M175 481q0 -33 -16 -62t-43 -47q27 -18 43 -47t16 -62v-263h-44v263q0 17 -7 34q-3 7 -7.5 14t-10.5 13t-13 11t-15 8q-16 7 -34 7v-350h-44v700h44q54 0 92.5 -38.5t38.5 -92.5v-88zM131 481v88q0 18 -7 34q-3 8 -7.5 15t-10.5 13t-13 10.5t-15 7.5q-16 7 -34 7v-262 q18 0 34 7q8 3 15 7.5t13 10.5t10.5 13t7.5 15q7 16 7 34z" />
<glyph unicode="S" d="M44 0h-44v44h44q36 0 61.5 25.5t25.5 61.5q0 14 -4 27l-121 370q-6 20 -6 41q0 26 10 51q10 23 28.5 41.5t41.5 28.5q25 10 51 10h44v-44h-44q-36 0 -61.5 -25.5t-25.5 -61.5q0 -14 4 -27l121 -370q6 -20 6 -41q0 -26 -10 -51q-10 -23 -28.5 -41.5t-41.5 -28.5 q-25 -10 -51 -10z" />
<glyph unicode="T" d="M175 700v-44h-66v-656h-43v656h-66v44h175z" />
<glyph unicode="U" d="M131 700h44v-569q0 -54 -38.5 -92.5t-92.5 -38.5h-44v700h44v-656q18 0 34 7q8 3 15 7.5t13 10.5t10.5 13t7.5 15q7 16 7 34v569z" />
<glyph unicode="V" d="M175 700l-66 -700h-43l-66 700h44l44 -463l43 463h44z" />
<glyph unicode="W" d="M131 700h44v-700h-44l-43 264l-44 -264h-44v700h44v-434l21 128h45l21 -128v434z" />
<glyph unicode="X" horiz-adv-x="240" d="M110 366q24 -117 38 -188q27 -143 27 -178h-44q0 31 -26 169q-8 38 -18 87q-9 -49 -17 -87q-13 -68 -19.5 -111t-6.5 -58h-44q0 35 27 178q14 70 38 188q-5 25 -15 74q-26 122 -35 169q-15 77 -15 91h44q0 -5 3 -26q4 -21 11 -57q9 -43 29 -144q21 101 30 144q7 36 11 57 q3 21 3 26h44q0 -14 -15 -91q-9 -47 -35 -169q-10 -49 -15 -74z" />
<glyph unicode="Y" d="M131 355v-5l-45 -350h-44l45 357q-38 14 -62.5 48t-24.5 76v219h44v-219q0 -18 7 -34q3 -8 7.5 -15t10.5 -13t13 -10q5 -4 11 -7l38 298h44z" />
<glyph unicode="Z" d="M131 131h44v-131h-131h-44l122 656h-78v-87h-44v131h175l-122 -656h78v87z" />
<glyph unicode="[" d="M44 744v-788h-44v832h175v-44h-131zM175 -88h-175v44h175v-44z" />
<glyph unicode="\" horiz-adv-x="285" d="M220 0l-131 700h-45l131 -700h45z" />
<glyph unicode="]" d="M131 744v-788h44v832h-175v-44h131zM0 -88h175v44h-175v-44z" />
<glyph unicode="^" d="M175 722h-55l-32 43l-33 -43h-55l66 87h43z" />
<glyph unicode="_" d="M175 44v-44h-175v44h175z" />
<glyph unicode="`" horiz-adv-x="186" d="M66 722l-66 87h55l65 -87h-54z" />
<glyph unicode="a" d="M131 700h44v-700h-44v350h-87v-350h-44v569q0 54 38.5 92.5t92.5 38.5v0zM131 394v262q-18 0 -34 -7q-7 -3 -14 -7.5t-13 -10.5t-11 -13t-8 -15q-7 -16 -7 -34v-175h87z" />
<glyph unicode="b" d="M175 481q0 -33 -16 -62t-43 -47q27 -18 43 -47t16 -63v-131q0 -54 -38.5 -92.5t-92.5 -38.5h-44v700h44q54 0 92.5 -38.5t38.5 -92.5v-88zM131 262q0 18 -7 35q-3 7 -7.5 14t-10.5 13t-13 11t-15 8q-16 7 -34 7v-306q18 0 34 7q8 3 15 7.5t13 10.5t10.5 13t7.5 15 q7 16 7 34v131zM131 481v88q0 18 -7 34q-3 8 -7.5 15t-10.5 13t-13 10.5t-15 7.5q-16 7 -34 7v-262q18 0 34 7q8 3 15 7.5t13 10.5t10.5 13t7.5 15q7 16 7 34z" />
<glyph unicode="c" horiz-adv-x="240" d="M44 569v-438q0 -18 7 -34q3 -8 7.5 -15t10.5 -13t13 -10.5t15 -7.5q16 -7 34 -7h44v-44h-44q-54 0 -92.5 38.5t-38.5 92.5v438q0 54 38.5 92.5t92.5 38.5h44v-44h-44q-18 0 -34 -7q-8 -3 -15 -7.5t-13 -10.5t-10.5 -13t-7.5 -15q-7 -16 -7 -34z" />
<glyph unicode="d" d="M44 700q54 0 92.5 -38.5t38.5 -92.5v-438q0 -54 -38.5 -92.5t-92.5 -38.5h-44v700h44zM131 131v438q0 18 -7 34q-3 8 -7.5 15t-10.5 13t-13 10.5t-15 7.5q-16 7 -34 7v-612q18 0 34 7q8 3 15 7.5t13 10.5t10.5 13t7.5 15q7 16 7 34z" />
<glyph unicode="e" d="M175 656h-131v-262h87v-44h-87v-306h131v-44h-175v700h175v-44z" />
<glyph unicode="f" d="M175 656h-131v-262h87v-44h-87v-350h-44v700h175v-44z" />
<glyph unicode="g" d="M175 394v-350v-44h-44v0q-54 0 -92.5 38.5t-38.5 92.5v438q0 54 38.5 92.5t92.5 38.5h44v-44h-44q-18 0 -34 -7q-8 -3 -15 -7.5t-13 -10.5t-10.5 -13t-7.5 -15q-7 -16 -7 -34v-438q0 -18 7 -34q3 -8 7.5 -15t10.5 -13t13 -10.5t15 -7.5q16 -7 34 -7v306h-43v44h87z" />
<glyph unicode="h" d="M131 700h44v-700h-44v350h-87v-350h-44v700h44v-306h87v306z" />
<glyph unicode="i" horiz-adv-x="109" d="M44 0h-44v700h44v-700z" />
<glyph unicode="j" d="M131 700h44v-569q0 -54 -38.5 -92.5t-92.5 -38.5h-44v44h44q18 0 34 7q8 3 15 7.5t13 10.5t10.5 13t7.5 15q7 16 7 34v569z" />
<glyph unicode="k" d="M82 373l93 -373h-45l-86 345v-345h-44v700h44v-300l86 300h45z" />
<glyph unicode="l" d="M44 44h131v-44h-175v700h44v-656z" />
<glyph unicode="m" horiz-adv-x="240" d="M131 700h44v-700h-44v463l-21 -113h-45l-21 113v-463h-44v700h44l44 -235z" />
<glyph unicode="n" d="M175 4v-4h-44l-87 464v-464h-44v700h44l87 -464v464h44v-696z" />
<glyph unicode="o" d="M131 700h44v-569q0 -54 -38.5 -92.5t-92.5 -38.5h-44v569q0 54 38.5 92.5t92.5 38.5zM131 131v525q-18 0 -34 -7q-8 -3 -15 -7.5t-13 -10.5t-10.5 -13t-7.5 -15q-7 -16 -7 -34v-525q18 0 34 7q8 3 15 7.5t13 10.5t10.5 13t7.5 15q7 16 7 34z" />
<glyph unicode="p" d="M44 700q54 0 92.5 -38.5t38.5 -92.5v-88q0 -54 -38.5 -92.5t-92.5 -38.5v-350h-44v700h44zM131 481v88q0 18 -7 34q-3 8 -7.5 15t-10.5 13t-13 10.5t-15 7.5q-16 7 -34 7v-262q18 0 34 7q8 3 15 7.5t13 10.5t10.5 13t7.5 15q7 16 7 34z" />
<glyph unicode="q" d="M228 -89l-31 -31l-158 158q-39 38 -39 93v569h44q54 0 92.5 -38.5t38.5 -92.5v-569h-36zM44 656v-525q0 -18 7 -34q3 -8 7.5 -15t10.5 -13t13 -10.5t15 -7.5q16 -7 34 -7v525q0 18 -7 34q-3 8 -7.5 15t-10.5 13t-13 10.5t-15 7.5q-16 7 -34 7z" />
<glyph unicode="r" d="M175 481q0 -33 -16 -62t-43 -47q27 -18 43 -47t16 -62v-263h-44v263q0 17 -7 34q-3 7 -7.5 14t-10.5 13t-13 11t-15 8q-16 7 -34 7v-350h-44v700h44q54 0 92.5 -38.5t38.5 -92.5v-88zM131 481v88q0 18 -7 34q-3 8 -7.5 15t-10.5 13t-13 10.5t-15 7.5q-16 7 -34 7v-262 q18 0 34 7q8 3 15 7.5t13 10.5t10.5 13t7.5 15q7 16 7 34z" />
<glyph unicode="s" d="M44 0h-44v44h44q36 0 61.5 25.5t25.5 61.5q0 14 -4 27l-121 370q-6 20 -6 41q0 26 10 51q10 23 28.5 41.5t41.5 28.5q25 10 51 10h44v-44h-44q-36 0 -61.5 -25.5t-25.5 -61.5q0 -14 4 -27l121 -370q6 -20 6 -41q0 -26 -10 -51q-10 -23 -28.5 -41.5t-41.5 -28.5 q-25 -10 -51 -10z" />
<glyph unicode="t" d="M175 700v-44h-66v-656h-43v656h-66v44h175z" />
<glyph unicode="u" d="M131 700h44v-569q0 -54 -38.5 -92.5t-92.5 -38.5h-44v700h44v-656q18 0 34 7q8 3 15 7.5t13 10.5t10.5 13t7.5 15q7 16 7 34v569z" />
<glyph unicode="v" d="M175 700l-66 -700h-43l-66 700h44l44 -463l43 463h44z" />
<glyph unicode="w" d="M131 700h44v-700h-44l-43 264l-44 -264h-44v700h44v-434l21 128h45l21 -128v434z" />
<glyph unicode="x" horiz-adv-x="240" d="M110 366q24 -117 38 -188q27 -143 27 -178h-44q0 31 -26 169q-8 38 -18 87q-9 -49 -17 -87q-13 -68 -19.5 -111t-6.5 -58h-44q0 35 27 178q14 70 38 188q-5 25 -15 74q-26 122 -35 169q-15 77 -15 91h44q0 -5 3 -26q4 -21 11 -57q9 -43 29 -144q21 101 30 144q7 36 11 57 q3 21 3 26h44q0 -14 -15 -91q-9 -47 -35 -169q-10 -49 -15 -74z" />
<glyph unicode="y" d="M131 355v-5l-45 -350h-44l45 357q-38 14 -62.5 48t-24.5 76v219h44v-219q0 -18 7 -34q3 -8 7.5 -15t10.5 -13t13 -10q5 -4 11 -7l38 298h44z" />
<glyph unicode="z" d="M101 44h74v-44h-131h-44l122 656h-122v44h175l-122 -656h48z" />
<glyph unicode="{" d="M86 397q-6 -30 -19 -46v-1v-1q13 -16 19 -46q7 -34 9 -124q2 -116 14 -160q18 -63 66 -63v-44q-44 0 -72 29q-13 12 -22 30q-8 16 -14 37q-9 33 -13 83q-2 29 -3 87q-1 86 -8 116q-4 20 -10 29q-5 5 -11 5h-22v44h22q6 0 10 5q7 9 11 29q6 30 8 115q1 59 3 88q4 50 13 83 q6 21 14 36q9 18 22 31q28 29 72 29v-44q-48 0 -66 -64q-12 -44 -14 -159q-2 -90 -9 -124z" />
<glyph unicode="|" horiz-adv-x="109" d="M44 -88h-44v876h44v-876z" />
<glyph unicode="}" d="M89 397q6 -30 19 -46v-1v-1q-13 -16 -19 -46q-7 -34 -9 -124q-2 -116 -14 -160q-18 -63 -66 -63v-44q44 0 72 29q13 12 22 30q8 16 14 37q9 33 13 83q2 29 3 87q1 86 8 116q4 20 10 29q5 5 11 5h22v44h-22q-6 0 -10 5q-7 9 -11 29q-6 30 -8 115q-1 59 -3 88q-4 50 -13 83 q-6 21 -14 36q-9 18 -22 31q-28 29 -72 29v-44q48 0 66 -64q12 -44 14 -159q2 -90 9 -124z" />
<glyph unicode="&#xa8;" horiz-adv-x="197" d="M44 722h-44v66h44v-66zM131 722h-43v66h43v-66z" />
<glyph unicode="&#xa9;" horiz-adv-x="415" d="M219 700q54 0 92.5 -38.5t38.5 -92.5v-366v-26v-46q0 -55 -40 -94l-1.5 -1.5l-1 -1l-1 -1l-1 -1l-1 -1t-1.5 -1t-1.5 -1l-0.5 -0.5h-1q0 -1 -0.5 -1.5t-1.5 -1t-1.5 -1l-1 -1t-1.5 -0.5l-1.5 -1.5l-0.5 -0.5h-1l-1 -0.5t-1 -1.5q-1 0 -1 -1h-1h-1v-1q-1 0 -1.5 -0.5 t-1.5 -0.5l-1 -1q-1 0 -1 -1h-1h-1l-1 -1h-1l-0.5 -0.5t-1.5 -0.5v-1h-1h-1l-1 -1h-1l-1 -1h-1t-1 -1h-1h-1l-1 -1h-1h-1l-1 -1h-1h-1v-1h-1h-1h-0.5h-1.5q0 -1 -1 -1h-1h-1q0 -1 -1 -1v0h-1h-1h-1q0 -1 -0.5 -1h-0.5h-0.5h-1.5h-1l-0.5 -0.5l-0.5 -0.5h-1h-1h-0.5h-1.5h-1 l-1 -1h-1h-0.5h-1h-1h-0.5h-1h-1h-1t-1 -1h-1h-1v0h-1h-1h-0.5h-0.5h-1h-1h-1h-1h-1v0h-1h-44h-44q-45 0 -80.5 28t-46.5 70q-1 4 -1 7q-1 2 -1.5 4.5t-0.5 5.5v3q-1 7 -1 13v219v219q0 54 38.5 92.5t92.5 38.5h44h44zM306 158v16v395q0 18 -7 34q-3 8 -7.5 15t-10.5 13 t-13 10.5t-15 7.5q-16 7 -34 7h-44h-44q-18 0 -34 -7q-8 -3 -15 -7.5t-13 -10.5t-10.5 -13t-7.5 -15q-7 -16 -7 -34v-216v-222v-7v-3q1 -2 1 -4q2 -10 6 -20q3 -8 7.5 -15t10.5 -13q1 -1 3 -2l10 -8q7 -5 15 -8l1 -1q16 -6 33 -6h44h44q17 0 33 6l1 1q7 3 14 7l1 1t2 1 q6 5 11 9q6 6 10.5 13t7.5 15q7 16 7 34v27zM262 547l1 -44h-44q-18 0 -34 -7q-8 -3 -15 -8t-13 -10.5t-11 -13t-8 -14.5q-7 -17 -7 -34v-66v-66q0 -17 7 -34q3 -7 8 -14.5t11 -13t13 -10.5t15 -8q16 -7 34 -7h44v-44h-1h-43q-55 0 -93 38.5t-38 92.5v66v66q0 54 38 92.5 t93 38.5h43z" />
<glyph unicode="&#xab;" horiz-adv-x="334" d="M175 700l-128 -350l128 -350h-47l-128 350l128 350h47zM268 700l-128 -350l128 -350h-46l-129 350l129 350h46z" />
<glyph unicode="&#xad;" d="M175 371v-44h-175v44h175z" />
<glyph unicode="&#xb0;" d="M87.5 656q-18.5 0 -31 -12.5t-12.5 -31t12.5 -31t31 -12.5t31 12.5t12.5 31t-12.5 31t-31 12.5zM0 612.5q0 36.5 25.5 62t62 25.5t62 -25.5t25.5 -62t-25.5 -62t-62 -25.5t-62 25.5t-25.5 62z" />
<glyph unicode="&#xbb;" horiz-adv-x="334" d="M93 700l129 -350l-129 -350h47l128 350l-128 350h-47zM0 700l128 -350l-128 -350h47l128 350l-128 350h-47z" />
<glyph unicode="&#xc0;" d="M131 700h44v-700h-44v350h-87v-350h-44v569q0 54 38.5 92.5t92.5 38.5v0zM131 394v262q-18 0 -34 -7q-7 -3 -14 -7.5t-13 -10.5t-11 -13t-8 -15q-7 -16 -7 -34v-175h87zM137 722h-55l-66 87h55z" />
<glyph unicode="&#xc2;" horiz-adv-x="251" d="M131 700h44v-700h-44v350h-87v-350h-44v569q0 54 38.5 92.5t92.5 38.5v0zM131 394v262q-18 0 -34 -7q-7 -3 -14 -7.5t-13 -10.5t-11 -13t-8 -15q-7 -16 -7 -34v-175h87zM98 766l-32 -44h-55l66 87h43l66 -87h-55z" />
<glyph unicode="&#xc4;" d="M77 722h-44v66h44v-66zM164 722h-44v66h44v-66zM131 700h44v-700h-44v350h-87v-350h-44v569q0 54 38.5 92.5t92.5 38.5v0zM131 394v262q-18 0 -34 -7q-7 -3 -14 -7.5t-13 -10.5t-11 -13t-8 -15q-7 -16 -7 -34v-175h87z" />
<glyph unicode="&#xc6;" horiz-adv-x="416" d="M219 44h131v-44h-175v350h-57l-73 -350h-45l147 700h203v-44h-131v-262h87v-44h-87v-306zM128 394h47v225z" />
<glyph unicode="&#xc7;" horiz-adv-x="240" d="M44 569v-438q0 -18 7 -34q3 -8 7.5 -15t10.5 -13t13 -10.5t15 -7.5q16 -7 34 -7h44v-44h-44q-10 0 -21 2q7 -5 13 -10q9 -9 14 -21t5 -25.5t-5 -25.5t-14 -21t-21 -14t-25.5 -5t-25.5 5t-21 14l31 31q7 -7 16 -7t15 6.5t6 15.5t-6 15.5t-15 6.5h-11v51q-30 17 -48 47 t-18 66v438q0 54 38.5 92.5t92.5 38.5h44v-44h-44q-18 0 -34 -7q-8 -3 -15 -7.5t-13 -10.5t-10.5 -13t-7.5 -15q-7 -16 -7 -34z" />
<glyph unicode="&#xc8;" d="M137 722h-55l-66 87h55zM175 656h-131v-262h87v-44h-87v-306h131v-44h-175v700h175v-44z" />
<glyph unicode="&#xc9;" d="M159 809l-66 -87h-55l66 87h55zM175 656h-131v-262h87v-44h-87v-306h131v-44h-175v700h175v-44z" />
<glyph unicode="&#xca;" d="M88 766l-33 -44h-55l66 87h43l66 -87h-55zM0 700h175v-44h-131v-262h87v-44h-87v-306h131v-44h-175v700z" />
<glyph unicode="&#xcb;" d="M66 722h-44v66h44v-66zM153 722h-44v66h44v-66zM175 656h-131v-262h87v-44h-87v-306h131v-44h-175v700h175v-44z" />
<glyph unicode="&#xcc;" d="M137 722h-55l-66 87h55zM109 44h66v-44h-66h-43h-66v44h66v612h-66v44h175v-44h-66v-612z" />
<glyph unicode="&#xce;" d="M88 766l-33 -44h-55l66 87h43l66 -87h-55zM109 656v-612h66v-44h-66h-43h-66v44h66v612h-66v44h175v-44h-66z" />
<glyph unicode="&#xcf;" d="M66 722h-44v66h44v-66zM153 722h-44v66h44v-66zM109 44h66v-44h-66h-43h-66v44h66v612h-66v44h175v-44h-66v-612z" />
<glyph unicode="&#xd2;" d="M126 722h-55l-66 87h55zM44 700h-44v-569q0 -54 38.5 -92.5t92.5 -38.5h44v569q0 54 -38.5 92.5t-92.5 38.5zM44 131v525q18 0 34 -7q8 -3 15 -7.5t13 -10.5t10.5 -13t7.5 -15q7 -16 7 -34v-525q-18 0 -34 7q-8 3 -15 7.5t-13 10.5t-10.5 13t-7.5 15q-7 16 -7 34z" />
<glyph unicode="&#xd4;" d="M76 766l-32 -44h-55l66 87h43l66 -87h-55zM175 569q0 54 -38.5 92.5t-92.5 38.5h-44v-569q0 -54 38.5 -92.5t92.5 -38.5h44v569zM44 131v525q18 0 34 -7q8 -3 15 -7.5t13 -10.5t10.5 -13t7.5 -15q7 -16 7 -34v-525q-18 0 -34 7q-8 3 -15 7.5t-13 10.5t-10.5 13t-7.5 15 q-7 16 -7 34z" />
<glyph unicode="&#xd6;" d="M55 722h-44v66h44v-66zM142 722h-44v66h44v-66zM44 700h-44v-569q0 -54 38.5 -92.5t92.5 -38.5h44v569q0 54 -38.5 92.5t-92.5 38.5zM44 131v525q18 0 34 -7q8 -3 15 -7.5t13 -10.5t10.5 -13t7.5 -15q7 -16 7 -34v-525q-18 0 -34 7q-8 3 -15 7.5t-13 10.5t-10.5 13 t-7.5 15q-7 16 -7 34z" />
<glyph unicode="&#xd8;" d="M161 627q14 -27 14 -58v-569h-44q-45 0 -81 28l-6 -28h-44l14 73q-14 27 -14 58v569h44q45 0 81 -28l5 28h45zM44 656v-421l71 384q-4 6 -9 12q-6 6 -13 10.5t-15 7.5q-16 7 -34 7zM97 51q16 -7 34 -7v421l-71 -384q4 -6 9 -12q6 -6 13 -10.5t15 -7.5z" />
<glyph unicode="&#xd9;" horiz-adv-x="240" d="M137 722h-55l-66 87h55zM131 700h44v-569q0 -54 -38.5 -92.5t-92.5 -38.5h-44v700h44v-656q18 0 34 7q8 3 15 7.5t13 10.5t10.5 13t7.5 15q7 16 7 34v569z" />
<glyph unicode="&#xdb;" d="M88 766l-33 -44h-55l66 87h43l66 -87h-55zM131 700h44v-569q0 -54 -38.5 -92.5t-92.5 -38.5h-44v700h44v-656q18 0 34 7q8 3 15 7.5t13 10.5t10.5 13t7.5 15q7 16 7 34v569z" />
<glyph unicode="&#xdc;" horiz-adv-x="240" d="M66 722h-44v66h44v-66zM153 722h-44v66h44v-66zM131 700h44v-569q0 -54 -38.5 -92.5t-92.5 -38.5h-44v700h44v-656q18 0 34 7q8 3 15 7.5t13 10.5t10.5 13t7.5 15q7 16 7 34v569z" />
<glyph unicode="&#xe0;" d="M131 700h44v-700h-44v350h-87v-350h-44v569q0 54 38.5 92.5t92.5 38.5v0zM131 394v262q-18 0 -34 -7q-7 -3 -14 -7.5t-13 -10.5t-11 -13t-8 -15q-7 -16 -7 -34v-175h87zM137 722h-55l-66 87h55z" />
<glyph unicode="&#xe2;" horiz-adv-x="251" d="M131 700h44v-700h-44v350h-87v-350h-44v569q0 54 38.5 92.5t92.5 38.5v0zM131 394v262q-18 0 -34 -7q-7 -3 -14 -7.5t-13 -10.5t-11 -13t-8 -15q-7 -16 -7 -34v-175h87zM98 766l-32 -44h-55l66 87h43l66 -87h-55z" />
<glyph unicode="&#xe4;" d="M77 722h-44v66h44v-66zM164 722h-44v66h44v-66zM131 700h44v-700h-44v350h-87v-350h-44v569q0 54 38.5 92.5t92.5 38.5v0zM131 394v262q-18 0 -34 -7q-7 -3 -14 -7.5t-13 -10.5t-11 -13t-8 -15q-7 -16 -7 -34v-175h87z" />
<glyph unicode="&#xe6;" horiz-adv-x="416" d="M219 44h131v-44h-175v350h-57l-73 -350h-45l147 700h203v-44h-131v-262h87v-44h-87v-306zM128 394h47v225z" />
<glyph unicode="&#xe7;" horiz-adv-x="240" d="M44 569v-438q0 -18 7 -34q3 -8 7.5 -15t10.5 -13t13 -10.5t15 -7.5q16 -7 34 -7h44v-44h-44q-10 0 -21 2q7 -5 13 -10q9 -9 14 -21t5 -25.5t-5 -25.5t-14 -21t-21 -14t-25.5 -5t-25.5 5t-21 14l31 31q7 -7 16 -7t15 6.5t6 15.5t-6 15.5t-15 6.5h-11v51q-30 17 -48 47 t-18 66v438q0 54 38.5 92.5t92.5 38.5h44v-44h-44q-18 0 -34 -7q-8 -3 -15 -7.5t-13 -10.5t-10.5 -13t-7.5 -15q-7 -16 -7 -34z" />
<glyph unicode="&#xe8;" d="M137 722h-55l-66 87h55zM175 656h-131v-262h87v-44h-87v-306h131v-44h-175v700h175v-44z" />
<glyph unicode="&#xe9;" d="M159 809l-66 -87h-55l66 87h55zM175 656h-131v-262h87v-44h-87v-306h131v-44h-175v700h175v-44z" />
<glyph unicode="&#xea;" d="M88 766l-33 -44h-55l66 87h43l66 -87h-55zM0 700h175v-44h-131v-262h87v-44h-87v-306h131v-44h-175v700z" />
<glyph unicode="&#xeb;" d="M66 722h-44v66h44v-66zM153 722h-44v66h44v-66zM175 656h-131v-262h87v-44h-87v-306h131v-44h-175v700h175v-44z" />
<glyph unicode="&#xec;" horiz-adv-x="110" d="M71 722h-54l-66 87h55zM44 0h-44v700h44v-700z" />
<glyph unicode="&#xee;" horiz-adv-x="110" d="M43 809l66 -87h-55l-32 44l-33 -44h-55l66 87h43zM43 0h-43v700h43v-700z" />
<glyph unicode="&#xef;" horiz-adv-x="110" d="M0 722h-44v66h44v-66zM87 722h-43v66h43v-66zM44 0h-44v700h44v-700z" />
<glyph unicode="&#xf2;" d="M137 722h-55l-66 87h55zM131 700h44v-569q0 -54 -38.5 -92.5t-92.5 -38.5h-44v569q0 54 38.5 92.5t92.5 38.5zM131 131v525q-18 0 -34 -7q-8 -3 -15 -7.5t-13 -10.5t-10.5 -13t-7.5 -15q-7 -16 -7 -34v-525q18 0 34 7q8 3 15 7.5t13 10.5t10.5 13t7.5 15q7 16 7 34z" />
<glyph unicode="&#xf4;" d="M88 766l-33 -44h-55l66 87h43l66 -87h-55zM0 569q0 54 38.5 92.5t92.5 38.5h44v-569q0 -54 -38.5 -92.5t-92.5 -38.5h-44v569zM131 131v525q-18 0 -34 -7q-8 -3 -15 -7.5t-13 -10.5t-10.5 -13t-7.5 -15q-7 -16 -7 -34v-525q18 0 34 7q8 3 15 7.5t13 10.5t10.5 13t7.5 15 q7 16 7 34z" />
<glyph unicode="&#xf6;" d="M66 722h-44v66h44v-66zM153 722h-44v66h44v-66zM131 700h44v-569q0 -54 -38.5 -92.5t-92.5 -38.5h-44v569q0 54 38.5 92.5t92.5 38.5zM131 131v525q-18 0 -34 -7q-8 -3 -15 -7.5t-13 -10.5t-10.5 -13t-7.5 -15q-7 -16 -7 -34v-525q18 0 34 7q8 3 15 7.5t13 10.5t10.5 13 t7.5 15q7 16 7 34z" />
<glyph unicode="&#xf8;" d="M131 700h44v-569q0 -26 -10.5 -50.5t-28 -42t-41.5 -28t-51 -10.5h-44v569q0 54 38.5 92.5t92.5 38.5zM44 569v-334l78 421q-13 -2 -25 -7q-8 -3 -15 -7.5t-13 -10.5t-10.5 -13t-7.5 -15q-7 -16 -7 -34zM131 131v334l-78 -421q13 2 25 7q8 3 15 7.5t13 10.5t10.5 13 t7.5 15q7 16 7 34z" />
<glyph unicode="&#xf9;" horiz-adv-x="240" d="M137 722h-55l-66 87h55zM131 700h44v-569q0 -54 -38.5 -92.5t-92.5 -38.5h-44v700h44v-656q18 0 34 7q8 3 15 7.5t13 10.5t10.5 13t7.5 15q7 16 7 34v569z" />
<glyph unicode="&#xfb;" d="M88 766l-33 -44h-55l66 87h43l66 -87h-55zM131 700h44v-569q0 -54 -38.5 -92.5t-92.5 -38.5h-44v700h44v-656q18 0 34 7q8 3 15 7.5t13 10.5t10.5 13t7.5 15q7 16 7 34v569z" />
<glyph unicode="&#xfc;" horiz-adv-x="240" d="M66 722h-44v66h44v-66zM153 722h-44v66h44v-66zM131 700h44v-569q0 -54 -38.5 -92.5t-92.5 -38.5h-44v700h44v-656q18 0 34 7q8 3 15 7.5t13 10.5t10.5 13t7.5 15q7 16 7 34v569z" />
<glyph unicode="&#x152;" horiz-adv-x="372" d="M306 44v-44h-175v131v525q-18 0 -34 -7q-8 -3 -15 -7.5t-13 -10.5t-10.5 -13t-7.5 -15q-7 -16 -7 -34v-438q0 -18 7 -34q3 -8 7.5 -15t10.5 -13t13 -10.5t15 -7.5q16 -7 34 -7v-44q-54 0 -92.5 38.5t-38.5 92.5v438q0 54 38.5 92.5t92.5 38.5v0h175v-44h-131v-262h87v-44 h-87v-306h131z" />
<glyph unicode="&#x153;" horiz-adv-x="372" d="M306 44v-44h-175v131v525q-18 0 -34 -7q-8 -3 -15 -7.5t-13 -10.5t-10.5 -13t-7.5 -15q-7 -16 -7 -34v-438q0 -18 7 -34q3 -8 7.5 -15t10.5 -13t13 -10.5t15 -7.5q16 -7 34 -7v-44q-54 0 -92.5 38.5t-38.5 92.5v438q0 54 38.5 92.5t92.5 38.5v0h175v-44h-131v-262h87v-44 h-87v-306h131z" />
<glyph unicode="&#x2000;" horiz-adv-x="404" />
<glyph unicode="&#x2001;" horiz-adv-x="809" />
<glyph unicode="&#x2002;" horiz-adv-x="404" />
<glyph unicode="&#x2003;" horiz-adv-x="809" />
<glyph unicode="&#x2004;" horiz-adv-x="269" />
<glyph unicode="&#x2005;" horiz-adv-x="202" />
<glyph unicode="&#x2006;" horiz-adv-x="134" />
<glyph unicode="&#x2007;" horiz-adv-x="134" />
<glyph unicode="&#x2008;" horiz-adv-x="101" />
<glyph unicode="&#x2009;" horiz-adv-x="161" />
<glyph unicode="&#x200a;" horiz-adv-x="44" />
<glyph unicode="&#x2010;" d="M175 371v-44h-175v44h175z" />
<glyph unicode="&#x2011;" d="M175 371v-44h-175v44h175z" />
<glyph unicode="&#x2012;" d="M175 371v-44h-175v44h175z" />
<glyph unicode="&#x2013;" horiz-adv-x="566" d="M500 371v-44h-500v44h500z" />
<glyph unicode="&#x2014;" horiz-adv-x="1066" d="M1000 371v-44h-1000v44h1000z" />
<glyph unicode="&#x2019;" horiz-adv-x="164" d="M30 597q-14 -6 -30 -6v44q14 0 23.5 9.5t9.5 23.5v98h44v-98q0 -16 -6 -30t-16.5 -24.5t-24.5 -16.5z" />
<glyph unicode="&#x202f;" horiz-adv-x="161" />
<glyph unicode="&#x205f;" horiz-adv-x="202" />
<glyph unicode="&#x20ac;" horiz-adv-x="284" d="M88 569v-153h87v-44h-87v-44h87v-44h-87v-153q0 -18 6 -34q4 -8 8.5 -15t10.5 -13t13 -10.5t15 -7.5q16 -7 34 -7h44v-44h-44q-54 0 -92.5 38.5t-38.5 92.5v153h-44v44h44v44h-44v44h44v153q0 54 38.5 92.5t92.5 38.5h44v-44h-44q-18 0 -34 -7q-8 -3 -15 -7.5t-13 -10.5 t-10.5 -13t-8.5 -15q-6 -16 -6 -34z" />
<glyph unicode="&#x25fc;" horiz-adv-x="700" d="M0 700h700v-700h-700v700z" />
</font>
</defs>
</svg>
